<?xml version="1.0" encoding="UTF-8"?>
<!DOCTYPE svg PUBLIC "-//W3C//DTD SVG 1.1//EN" "http://www.w3.org/Graphics/SVG/1.1/DTD/svg11.dtd">
<svg xmlns="http://www.w3.org/2000/svg" version="1.1" width="512px" height="512px" style="shape-rendering:geometricPrecision; text-rendering:geometricPrecision; image-rendering:optimizeQuality; fill-rule:evenodd; clip-rule:evenodd" xmlns:xlink="http://www.w3.org/1999/xlink">
<g><path style="opacity:0.976" fill="#020200" d="M 296.5,-0.5 C 301.833,-0.5 307.167,-0.5 312.5,-0.5C 332.564,2.08213 350.23,10.0821 365.5,23.5C 400.532,1.729 435.199,2.229 469.5,25C 480.214,33.7132 488.714,44.2132 495,56.5C 496.481,61.1813 495.314,64.8479 491.5,67.5C 489.143,67.6633 486.81,67.4966 484.5,67C 480.629,62.0928 477.129,56.9261 474,51.5C 465.566,40.2306 454.733,32.2306 441.5,27.5C 423.315,21.7542 405.315,22.2542 387.5,29C 383.078,30.9408 379.078,33.4408 375.5,36.5C 388.704,55.9153 397.204,77.2486 401,100.5C 401.333,128.5 401.667,156.5 402,184.5C 403.84,201.196 408.174,217.196 415,232.5C 424.375,250.249 432.375,268.582 439,287.5C 456.477,354.427 441.644,412.927 394.5,463C 389.627,467.378 384.627,471.545 379.5,475.5C 370.699,482.073 361.366,487.907 351.5,493C 419.547,485.624 465.38,449.791 489,385.5C 497.211,357.165 498.545,328.498 493,299.5C 489.128,284.884 485.461,270.217 482,255.5C 477.811,234.219 477.478,212.886 481,191.5C 485.323,172.557 489.323,153.557 493,134.5C 493.967,120.602 493.467,106.769 491.5,93C 491.807,89.1887 493.807,86.6887 497.5,85.5C 501.273,84.8224 504.106,86.1558 506,89.5C 509.592,105.383 510.259,121.383 508,137.5C 503.347,160.11 499.014,182.776 495,205.5C 494.333,216.833 494.333,228.167 495,239.5C 500.536,264.961 506.036,290.295 511.5,315.5C 511.5,328.5 511.5,341.5 511.5,354.5C 499.734,432.776 455.734,482.942 379.5,505C 357.821,509.827 335.988,510.66 314,507.5C 305.032,508.899 296.199,510.232 287.5,511.5C 280.167,511.5 272.833,511.5 265.5,511.5C 236.225,508.407 209.225,498.74 184.5,482.5C 180.833,485.333 177.167,488.167 173.5,491C 171.167,491.667 168.833,491.667 166.5,491C 165.619,490.292 164.953,489.458 164.5,488.5C 162.047,485.697 161.88,482.697 164,479.5C 195.013,453.5 208.679,420.167 205,379.5C 195.886,319.448 166.72,271.948 117.5,237C 110.19,232.174 102.19,229.674 93.5,229.5C 81.5839,231.38 71.7506,237.047 64,246.5C 23.5945,295.109 8.26113,350.776 18,413.5C 28.4642,456.964 55.2975,484.13 98.5,495C 101.817,495.498 105.15,495.665 108.5,495.5C 118.816,495.962 128.983,494.962 139,492.5C 140.967,492.542 142.801,493.042 144.5,494C 145.163,495.518 146.163,496.685 147.5,497.5C 147.497,500.675 146.497,503.508 144.5,506C 136.877,508.553 129.21,510.387 121.5,511.5C 115.5,511.5 109.5,511.5 103.5,511.5C 60.5195,504.368 29.6862,481.035 11,441.5C 5.41896,427.501 1.58563,413.167 -0.5,398.5C -0.5,385.167 -0.5,371.833 -0.5,358.5C 5.49432,307.681 26.161,263.848 61.5,227C 81.4779,210.746 102.478,209.413 124.5,223C 130.947,227.113 137.114,231.613 143,236.5C 153.769,223.732 163.769,210.399 173,196.5C 182.214,180.527 188.881,163.527 193,145.5C 196.282,126.755 199.949,108.088 204,89.5C 212.961,59.2275 229.794,34.3942 254.5,15C 267.481,6.73231 281.481,1.56564 296.5,-0.5 Z"/></g>
<g><path style="opacity:1" fill="#a1e52d" d="M 313.5,15.5 C 323.718,21.5476 332.218,29.5476 339,39.5C 353.541,60.9238 361.541,84.5905 363,110.5C 362.715,132.495 362.715,154.495 363,176.5C 364.052,192.656 367.386,208.322 373,223.5C 379.393,237.953 386.06,252.287 393,266.5C 417.545,327.263 410.879,384.263 373,437.5C 349.411,466.54 319.578,485.873 283.5,495.5C 251.094,496.483 221.427,487.983 194.5,470C 205.117,455.998 212.783,440.498 217.5,423.5C 245.607,444.02 276.607,449.853 310.5,441C 365.475,419.573 389.642,379.406 383,320.5C 370.761,273.928 340.927,246.428 293.5,238C 248.354,235.073 213.687,252.573 189.5,290.5C 179.185,275.339 167.518,261.173 154.5,248C 164.333,234.833 174.167,221.667 184,208.5C 193.503,192.823 200.837,176.156 206,158.5C 210.168,134.317 215.168,110.317 221,86.5C 230.478,60.3694 246.645,39.5361 269.5,24C 283.219,16.4049 297.886,13.5716 313.5,15.5 Z"/></g>
<g><path style="opacity:1" fill="#95d428" d="M 313.5,15.5 C 337.387,19.5184 355.554,31.8518 368,52.5C 378.933,70.2991 385.266,89.6324 387,110.5C 386.846,133.498 386.846,156.498 387,179.5C 388.286,195.931 391.62,211.931 397,227.5C 403.786,243.739 411.119,259.739 419,275.5C 435.61,317.512 435.61,359.512 419,401.5C 391.79,458.519 346.623,489.852 283.5,495.5C 319.578,485.873 349.411,466.54 373,437.5C 410.879,384.263 417.545,327.263 393,266.5C 386.06,252.287 379.393,237.953 373,223.5C 367.386,208.322 364.052,192.656 363,176.5C 362.715,154.495 362.715,132.495 363,110.5C 361.541,84.5905 353.541,60.9238 339,39.5C 332.218,29.5476 323.718,21.5476 313.5,15.5 Z"/></g>
<g><path style="opacity:1" fill="#80b722" d="M 441.5,27.5 C 464.175,55.3784 473.675,87.3784 470,123.5C 467.227,142.362 463.561,161.029 459,179.5C 454.757,199.433 454.423,219.433 458,239.5C 461.382,255.981 465.382,272.314 470,288.5C 481.954,353.233 464.121,408.067 416.5,453C 405.354,462.077 393.354,469.911 380.5,476.5C 379.893,476.376 379.56,476.043 379.5,475.5C 384.627,471.545 389.627,467.378 394.5,463C 441.644,412.927 456.477,354.427 439,287.5C 432.375,268.582 424.375,250.249 415,232.5C 408.174,217.196 403.84,201.196 402,184.5C 401.667,156.5 401.333,128.5 401,100.5C 397.204,77.2486 388.704,55.9153 375.5,36.5C 379.078,33.4408 383.078,30.9408 387.5,29C 405.315,22.2542 423.315,21.7542 441.5,27.5 Z"/></g>
<g><path style="opacity:1" fill="#76a71e" d="M 441.5,27.5 C 454.733,32.2306 465.566,40.2306 474,51.5C 477.129,56.9261 480.629,62.0928 484.5,67C 486.81,67.4966 489.143,67.6633 491.5,67.5C 494.095,73.2848 496.095,79.2848 497.5,85.5C 493.807,86.6887 491.807,89.1887 491.5,93C 493.467,106.769 493.967,120.602 493,134.5C 489.323,153.557 485.323,172.557 481,191.5C 477.478,212.886 477.811,234.219 482,255.5C 485.461,270.217 489.128,284.884 493,299.5C 498.545,328.498 497.211,357.165 489,385.5C 465.38,449.791 419.547,485.624 351.5,493C 361.366,487.907 370.699,482.073 379.5,475.5C 379.56,476.043 379.893,476.376 380.5,476.5C 393.354,469.911 405.354,462.077 416.5,453C 464.121,408.067 481.954,353.233 470,288.5C 465.382,272.314 461.382,255.981 458,239.5C 454.423,219.433 454.757,199.433 459,179.5C 463.561,161.029 467.227,142.362 470,123.5C 473.675,87.3784 464.175,55.3784 441.5,27.5 Z"/></g>
<g><path style="opacity:1" fill="#fddaa5" d="M 93.5,229.5 C 142.842,266.15 171.676,315.15 180,376.5C 183.542,417.565 170.042,451.732 139.5,479C 129.962,486.101 119.629,491.601 108.5,495.5C 105.15,495.665 101.817,495.498 98.5,495C 55.2975,484.13 28.4642,456.964 18,413.5C 8.26113,350.776 23.5945,295.109 64,246.5C 71.7506,237.047 81.5839,231.38 93.5,229.5 Z"/></g>
<g><path style="opacity:1" fill="#fbcc83" d="M 93.5,229.5 C 102.19,229.674 110.19,232.174 117.5,237C 166.72,271.948 195.886,319.448 205,379.5C 208.679,420.167 195.013,453.5 164,479.5C 161.88,482.697 162.047,485.697 164.5,488.5C 159.277,492.279 153.61,495.279 147.5,497.5C 146.163,496.685 145.163,495.518 144.5,494C 142.801,493.042 140.967,492.542 139,492.5C 128.983,494.962 118.816,495.962 108.5,495.5C 119.629,491.601 129.962,486.101 139.5,479C 170.042,451.732 183.542,417.565 180,376.5C 171.676,315.15 142.842,266.15 93.5,229.5 Z"/></g>
<g><path style="opacity:1" fill="#d67e49" d="M 350.5,286.5 C 363.679,334.472 350.013,372.639 309.5,401C 281.445,416.327 252.445,418.494 222.5,407.5C 221.796,372.659 213.796,339.326 198.5,307.5C 212.189,277.654 235.189,259.487 267.5,253C 294.488,250.077 318.488,257.077 339.5,274C 343.747,277.742 347.414,281.908 350.5,286.5 Z"/></g>
<g><path style="opacity:1" fill="#c56b35" d="M 350.5,286.5 C 369.3,310.674 374.467,337.674 366,367.5C 347.954,413.112 314.454,433.612 265.5,429C 248.908,426.037 234.575,418.871 222.5,407.5C 252.445,418.494 281.445,416.327 309.5,401C 350.013,372.639 363.679,334.472 350.5,286.5 Z"/></g>
</svg>
