<?xml version="1.0" encoding="UTF-8"?>
<!DOCTYPE svg PUBLIC "-//W3C//DTD SVG 1.1//EN" "http://www.w3.org/Graphics/SVG/1.1/DTD/svg11.dtd">
<svg xmlns="http://www.w3.org/2000/svg" version="1.1" width="512px" height="512px" style="shape-rendering:geometricPrecision; text-rendering:geometricPrecision; image-rendering:optimizeQuality; fill-rule:evenodd; clip-rule:evenodd" xmlns:xlink="http://www.w3.org/1999/xlink">
<g><path style="opacity:0.979" fill="#34373a" d="M 436.5,-0.5 C 440.167,-0.5 443.833,-0.5 447.5,-0.5C 454.439,3.94919 459.939,9.94919 464,17.5C 472.005,9.97855 480.338,9.64522 489,16.5C 492.991,23.2233 494.824,30.5567 494.5,38.5C 494.188,46.6904 492.854,54.6904 490.5,62.5C 504.97,65.7721 509.803,74.4388 505,88.5C 501.497,92.8353 496.997,95.502 491.5,96.5C 478.521,91.5982 466.188,92.7649 454.5,100C 451.449,102.714 448.782,105.714 446.5,109C 456.738,115.905 464.904,124.738 471,135.5C 474.072,143.193 475.739,151.193 476,159.5C 485.179,178.037 492.179,197.371 497,217.5C 497.979,221.295 497.146,224.628 494.5,227.5C 520.62,310.077 504.787,383.41 447,447.5C 410.343,484.244 366.177,505.578 314.5,511.5C 300.833,511.5 287.167,511.5 273.5,511.5C 191.475,499.906 132.975,456.573 98,381.5C 79.3071,334.832 76.8071,287.332 90.5,239C 86.4217,187.158 106.088,147.158 149.5,119C 169.301,107.55 190.634,102.05 213.5,102.5C 208.913,81.8974 204.579,61.2307 200.5,40.5C 200.336,36.8226 202.003,34.3226 205.5,33C 275.208,18.9415 339.374,31.7749 398,71.5C 398.825,69.2992 398.325,67.4659 396.5,66C 390.501,64.1201 385.334,60.9534 381,56.5C 375.261,39.2489 381.428,30.7489 399.5,31C 402.155,32.115 404.821,32.7816 407.5,33C 411.681,25.4758 417.347,19.3092 424.5,14.5C 426.332,7.67794 430.332,2.67794 436.5,-0.5 Z"/></g>
<g><path style="opacity:1" fill="#8df567" d="M 454.5,57.5 C 454.581,46.4719 451.581,36.4719 445.5,27.5C 442.289,24.2518 439.955,20.4185 438.5,16C 439.138,12.7072 441.138,11.7072 444.5,13C 455.092,24.0316 459.592,37.1983 458,52.5C 457.303,54.5844 456.136,56.2511 454.5,57.5 Z"/></g>
<g><path style="opacity:1" fill="#8ef668" d="M 471.5,60.5 C 473.01,53.4277 474.01,46.261 474.5,39C 474.496,36.6392 474.163,34.4726 473.5,32.5C 472.463,30.2625 472.297,27.9291 473,25.5C 477.679,22.1931 480.345,23.5264 481,29.5C 482.28,39.8723 480.947,49.8723 477,59.5C 475.301,60.4061 473.467,60.7394 471.5,60.5 Z"/></g>
<g><path style="opacity:1" fill="#89ed63" d="M 429.5,26.5 C 431.497,28.513 433.164,30.8463 434.5,33.5C 430.79,37.2079 427.457,41.2079 424.5,45.5C 421.891,44.5569 419.891,42.8903 418.5,40.5C 421.428,35.2404 425.095,30.5738 429.5,26.5 Z"/></g>
<g><path style="opacity:1" fill="#6dcd3b" d="M 445.5,27.5 C 451.581,36.4719 454.581,46.4719 454.5,57.5C 452.949,60.5628 450.782,63.2295 448,65.5C 449.311,59.689 450.145,53.689 450.5,47.5C 450.053,40.499 448.386,33.8323 445.5,27.5 Z"/></g>
<g><path style="opacity:1" fill="#81ea87" d="M 381.5,101.5 C 368.68,91.5801 354.68,83.4134 339.5,77C 300.372,61.1057 260.039,56.939 218.5,64.5C 216.233,58.0999 214.567,51.4333 213.5,44.5C 283.655,32.6184 346.821,48.2851 403,91.5C 403.931,93.4595 404.764,95.4595 405.5,97.5C 397.333,97.9858 389.333,99.3191 381.5,101.5 Z"/></g>
<g><path style="opacity:1" fill="#8df467" d="M 427.5,79.5 C 422.064,67.7296 413.398,59.3962 401.5,54.5C 397.485,53.4089 393.985,51.4089 391,48.5C 390.412,45.412 391.745,43.7453 395,43.5C 411.855,48.8538 423.355,59.8538 429.5,76.5C 429.547,78.0377 428.88,79.0377 427.5,79.5 Z"/></g>
<g><path style="opacity:1" fill="#6cca3c" d="M 473.5,32.5 C 474.163,34.4726 474.496,36.6392 474.5,39C 474.01,46.261 473.01,53.4277 471.5,60.5C 470.022,60.762 468.689,60.4287 467.5,59.5C 471.689,50.9971 473.689,41.9971 473.5,32.5 Z"/></g>
<g><path style="opacity:1" fill="#86e365" d="M 436.5,53.5 C 437.764,55.7721 437.598,58.1055 436,60.5C 434.266,58.1372 434.433,55.8039 436.5,53.5 Z"/></g>
<g><path style="opacity:1" fill="#6fd03d" d="M 401.5,54.5 C 413.398,59.3962 422.064,67.7296 427.5,79.5C 426.164,81.0103 424.997,82.6769 424,84.5C 420.114,71.7014 412.614,61.7014 401.5,54.5 Z"/></g>
<g><path style="opacity:1" fill="#5ecc94" d="M 381.5,101.5 C 378.616,103.527 375.45,105.194 372,106.5C 325.3,76.6202 274.466,65.9535 219.5,74.5C 218.949,71.1933 218.616,67.8599 218.5,64.5C 260.039,56.939 300.372,61.1057 339.5,77C 354.68,83.4134 368.68,91.5801 381.5,101.5 Z"/></g>
<g><path style="opacity:1" fill="#8df267" d="M 485.5,82.5 C 483.723,81.3995 481.723,80.5662 479.5,80C 468.459,78.5377 457.792,79.871 447.5,84C 443.598,86.1189 439.598,87.9523 435.5,89.5C 451.656,73.5457 470.656,69.0457 492.5,76C 494.576,77.8841 494.91,80.0508 493.5,82.5C 490.84,83.7026 488.173,83.7026 485.5,82.5 Z"/></g>
<g><path style="opacity:0.949" fill="#33363a" d="M 38.5,79.5 C 41.6535,79.6594 44.1535,80.9928 46,83.5C 46.4999,98.8297 46.6666,114.163 46.5,129.5C 51.2675,129.517 55.9342,130.184 60.5,131.5C 61.3329,116.178 61.8329,100.844 62,85.5C 65.0262,82.1355 68.5262,81.6355 72.5,84C 73.1905,85.0674 73.6905,86.2341 74,87.5C 74.4833,120.871 75.15,154.204 76,187.5C 72.9103,200.971 64.4103,207.638 50.5,207.5C 50.3334,222.837 50.5001,238.17 51,253.5C 60.4713,258.311 66.138,265.978 68,276.5C 68.6667,343.833 68.6667,411.167 68,478.5C 63.1616,498.344 50.6616,506.178 30.5,502C 19.7928,497.289 13.6261,489.122 12,477.5C 11.3333,411.167 11.3333,344.833 12,278.5C 12.9414,266.95 18.6081,258.616 29,253.5C 29.4999,238.17 29.6666,222.837 29.5,207.5C 15.0077,207.682 6.50768,200.682 4,186.5C 4.88082,153.538 5.54749,120.538 6,87.5C 9.13231,81.7557 13.1323,81.089 18,85.5C 18.1671,100.844 18.6671,116.178 19.5,131.5C 24.0658,130.184 28.7325,129.517 33.5,129.5C 33.3334,114.163 33.5001,98.8297 34,83.5C 35.3968,81.9297 36.8968,80.5964 38.5,79.5 Z"/></g>
<g><path style="opacity:1" fill="#6fd13b" d="M 485.5,82.5 C 459.046,78.6427 440.546,88.976 430,113.5C 427.861,114.769 425.695,114.769 423.5,113.5C 422.515,111.902 422.349,110.235 423,108.5C 425.851,101.178 430.018,94.8442 435.5,89.5C 439.598,87.9523 443.598,86.1189 447.5,84C 457.792,79.871 468.459,78.5377 479.5,80C 481.723,80.5662 483.723,81.3995 485.5,82.5 Z"/></g>
<g><path style="opacity:1" fill="#d30224" d="M 359.5,113.5 C 357.196,116.658 355.03,119.991 353,123.5C 313.893,99.5998 271.393,89.5998 225.5,93.5C 225.5,94.8333 225.5,96.1667 225.5,97.5C 224.313,94.0542 223.646,90.3875 223.5,86.5C 272.439,78.088 317.773,87.088 359.5,113.5 Z"/></g>
<g><path style="opacity:1" fill="#f22535" d="M 359.5,113.5 C 360.756,113.461 361.756,113.961 362.5,115C 359.784,118.271 357.451,121.771 355.5,125.5C 354.312,124.316 353.145,124.316 352,125.5C 342.307,141.572 332.141,157.239 321.5,172.5C 301.524,133.527 269.857,110.86 226.5,104.5C 226.326,102.139 225.993,99.8056 225.5,97.5C 225.5,96.1667 225.5,94.8333 225.5,93.5C 271.393,89.5998 313.893,99.5998 353,123.5C 355.03,119.991 357.196,116.658 359.5,113.5 Z"/></g>
<g><path style="opacity:1" fill="#f9db0b" d="M 415.5,123.5 C 404.533,119.85 393.533,116.85 382.5,114.5C 391.427,110.886 400.76,109.553 410.5,110.5C 410.408,115.563 412.074,119.897 415.5,123.5 Z"/></g>
<g><path style="opacity:1" fill="#9e7e3b" d="M 211.5,114.5 C 211.5,122.833 211.5,131.167 211.5,139.5C 209.585,139.216 207.919,139.549 206.5,140.5C 165.713,145.449 139.879,167.783 129,207.5C 127.869,213.112 127.369,218.779 127.5,224.5C 119.167,224.5 110.833,224.5 102.5,224.5C 102.5,222.167 102.5,219.833 102.5,217.5C 106.348,173.3 128.348,141.8 168.5,123C 182.244,117.147 196.578,114.314 211.5,114.5 Z"/></g>
<g><path style="opacity:1" fill="#83682c" d="M 211.5,114.5 C 258.73,116.689 292.564,139.022 313,181.5C 317.724,193.059 320.224,205.059 320.5,217.5C 320.5,219.833 320.5,222.167 320.5,224.5C 312.167,224.5 303.833,224.5 295.5,224.5C 293.341,184.84 273.674,158.007 236.5,144C 226.716,141.096 216.716,139.929 206.5,140.5C 207.919,139.549 209.585,139.216 211.5,139.5C 211.5,131.167 211.5,122.833 211.5,114.5 Z"/></g>
<g><path style="opacity:1" fill="#fcb007" d="M 382.5,114.5 C 393.533,116.85 404.533,119.85 415.5,123.5C 419.155,125.829 423.155,127.163 427.5,127.5C 438.601,131.048 449.268,135.715 459.5,141.5C 463.353,148.343 464.353,155.677 462.5,163.5C 461.277,164.614 459.944,164.781 458.5,164C 450.728,161.298 442.895,158.798 435,156.5C 433.02,157.315 431.52,158.648 430.5,160.5C 427.603,159.871 424.936,158.871 422.5,157.5C 422.623,152.114 419.956,148.947 414.5,148C 410.754,146.778 408.087,147.944 406.5,151.5C 404.139,151.326 401.806,150.993 399.5,150.5C 400.057,143.272 396.724,140.439 389.5,142C 388.29,143.039 387.29,144.206 386.5,145.5C 385.167,145.167 383.833,144.833 382.5,144.5C 382.549,137.691 379.216,134.858 372.5,136C 371.295,137.376 369.962,138.542 368.5,139.5C 366.597,139.204 364.93,138.537 363.5,137.5C 366.535,127.13 372.868,119.463 382.5,114.5 Z"/></g>
<g><path style="opacity:1" fill="#fadb0a" d="M 459.5,141.5 C 449.268,135.715 438.601,131.048 427.5,127.5C 432.454,126.606 436.62,124.272 440,120.5C 448.453,125.782 454.953,132.782 459.5,141.5 Z"/></g>
<g><path style="opacity:1" fill="#f84158" d="M 355.5,125.5 C 351.417,134.488 348.25,143.822 346,153.5C 341.349,172.102 337.016,190.769 333,209.5C 330.86,196.597 327.027,184.264 321.5,172.5C 332.141,157.239 342.307,141.572 352,125.5C 353.145,124.316 354.312,124.316 355.5,125.5 Z"/></g>
<g><path style="opacity:1" fill="#3a3938" d="M 382.5,144.5 C 382.047,145.458 381.381,146.292 380.5,147C 373.297,149.245 369.297,146.745 368.5,139.5C 369.962,138.542 371.295,137.376 372.5,136C 379.216,134.858 382.549,137.691 382.5,144.5 Z"/></g>
<g><path style="opacity:1" fill="#fb7f04" d="M 363.5,137.5 C 364.93,138.537 366.597,139.204 368.5,139.5C 369.297,146.745 373.297,149.245 380.5,147C 381.381,146.292 382.047,145.458 382.5,144.5C 383.833,144.833 385.167,145.167 386.5,145.5C 386.666,152.809 390.333,155.309 397.5,153C 398.381,152.292 399.047,151.458 399.5,150.5C 401.806,150.993 404.139,151.326 406.5,151.5C 406.718,157.719 410.051,161.052 416.5,161.5C 419.256,161.134 421.256,159.8 422.5,157.5C 424.936,158.871 427.603,159.871 430.5,160.5C 429.959,163.652 430.959,166.152 433.5,168C 442.019,170.616 450.352,173.616 458.5,177C 456.158,183.887 453.158,190.387 449.5,196.5C 441.43,193.532 433.263,190.865 425,188.5C 419.259,190.42 418.092,193.92 421.5,199C 429.611,201.813 437.611,204.813 445.5,208C 443.264,212.97 440.93,217.804 438.5,222.5C 409.044,212.126 379.377,202.126 349.5,192.5C 353.096,173.782 357.762,155.449 363.5,137.5 Z"/></g>
<g><path style="opacity:1" fill="#373839" d="M 399.5,150.5 C 399.047,151.458 398.381,152.292 397.5,153C 390.333,155.309 386.666,152.809 386.5,145.5C 387.29,144.206 388.29,143.039 389.5,142C 396.724,140.439 400.057,143.272 399.5,150.5 Z"/></g>
<g><path style="opacity:1" fill="#3a3938" d="M 422.5,157.5 C 421.256,159.8 419.256,161.134 416.5,161.5C 410.051,161.052 406.718,157.719 406.5,151.5C 408.087,147.944 410.754,146.778 414.5,148C 419.956,148.947 422.623,152.114 422.5,157.5 Z"/></g>
<g><path style="opacity:1" fill="#daee1d" d="M 201.5,153.5 C 202.552,153.351 203.552,153.517 204.5,154C 183.299,175.368 161.965,196.535 140.5,217.5C 140.5,216.5 140.5,215.5 140.5,214.5C 145.283,185.877 161.283,166.377 188.5,156C 192.703,154.431 197.036,153.598 201.5,153.5 Z"/></g>
<g><path style="opacity:1" fill="#bddc05" d="M 201.5,153.5 C 204.625,152.521 207.958,152.187 211.5,152.5C 211.5,167.167 211.5,181.833 211.5,196.5C 194.525,198.142 185.192,207.475 183.5,224.5C 169.167,224.5 154.833,224.5 140.5,224.5C 140.5,222.167 140.5,219.833 140.5,217.5C 161.965,196.535 183.299,175.368 204.5,154C 203.552,153.517 202.552,153.351 201.5,153.5 Z"/></g>
<g><path style="opacity:1" fill="#84c506" d="M 211.5,152.5 C 215.042,152.187 218.375,152.521 221.5,153.5C 220.448,153.351 219.448,153.517 218.5,154C 239.667,175.167 260.833,196.333 282,217.5C 282.464,216.906 282.631,216.239 282.5,215.5C 283.833,221.167 283.833,226.833 282.5,232.5C 282.5,232.167 282.5,231.833 282.5,231.5C 282.5,229.167 282.5,226.833 282.5,224.5C 268.167,224.5 253.833,224.5 239.5,224.5C 237.835,207.501 228.501,198.168 211.5,196.5C 211.5,181.833 211.5,167.167 211.5,152.5 Z"/></g>
<g><path style="opacity:1" fill="#52c10a" d="M 221.5,153.5 C 249.119,158.231 268.286,173.564 279,199.5C 281.118,204.638 282.285,209.971 282.5,215.5C 282.631,216.239 282.464,216.906 282,217.5C 260.833,196.333 239.667,175.167 218.5,154C 219.448,153.517 220.448,153.351 221.5,153.5 Z"/></g>
<g><path style="opacity:1" fill="#373739" d="M 361.5,167.5 C 370.519,167.314 373.186,171.148 369.5,179C 358.688,180.518 356.021,176.685 361.5,167.5 Z"/></g>
<g><path style="opacity:1" fill="#373738" d="M 378.5,173.5 C 387.805,172.951 390.472,176.785 386.5,185C 375.814,186.188 373.147,182.355 378.5,173.5 Z"/></g>
<g><path style="opacity:1" fill="#393838" d="M 399.5,179.5 C 403.902,179.91 407.735,181.577 411,184.5C 412.281,190.801 409.781,193.635 403.5,193C 394.657,190.334 393.323,185.834 399.5,179.5 Z"/></g>
<g><path style="opacity:1" fill="#80e886" d="M 463.5,221.5 C 462.78,216.008 461.447,210.675 459.5,205.5C 463.159,196.846 466.826,188.179 470.5,179.5C 476.428,191.616 480.761,204.283 483.5,217.5C 476.859,218.962 470.192,220.295 463.5,221.5 Z"/></g>
<g><path style="opacity:1" fill="#fb6a07" d="M 349.5,192.5 C 379.377,202.126 409.044,212.126 438.5,222.5C 438.205,224.423 437.372,226.09 436,227.5C 428.289,224.541 420.456,221.874 412.5,219.5C 406.508,221.323 405.175,224.823 408.5,230C 416.057,233.13 423.723,235.963 431.5,238.5C 428.356,244.621 425.356,250.788 422.5,257C 421.167,257.667 419.833,257.667 418.5,257C 411.585,254.528 404.585,252.361 397.5,250.5C 395.626,250.39 394.126,251.056 393,252.5C 392.022,255.669 392.522,258.503 394.5,261C 401.985,263.549 409.318,266.382 416.5,269.5C 413.561,276.395 409.894,282.729 405.5,288.5C 395.645,285.24 386.645,280.406 378.5,274C 364.864,266.622 350.53,261.122 335.5,257.5C 336.138,252.81 336.971,248.144 338,243.5C 343.051,242.072 345.051,238.739 344,233.5C 342.092,232.182 341.258,230.348 341.5,228C 342.606,221.077 344.106,214.244 346,207.5C 348.827,210.665 352.327,211.831 356.5,211C 360.393,207.254 360.393,203.588 356.5,200C 353.571,199.223 350.737,199.39 348,200.5C 347.567,197.581 348.067,194.914 349.5,192.5 Z"/></g>
<g><path style="opacity:1" fill="#53c407" d="M 211.5,196.5 C 228.501,198.168 237.835,207.501 239.5,224.5C 235.833,224.5 232.167,224.5 228.5,224.5C 227.167,214.5 221.5,208.833 211.5,207.5C 211.5,203.833 211.5,200.167 211.5,196.5 Z"/></g>
<g><path style="opacity:1" fill="#3a3738" d="M 365.5,205.5 C 373.321,203.833 376.821,206.833 376,214.5C 372.075,218.41 368.075,218.41 364,214.5C 361.788,211.021 362.288,208.021 365.5,205.5 Z"/></g>
<g><path style="opacity:1" fill="#5dc791" d="M 459.5,205.5 C 461.447,210.675 462.78,216.008 463.5,221.5C 460.314,222.963 456.98,223.463 453.5,223C 452.978,222.439 452.645,221.772 452.5,221C 454.472,215.565 456.805,210.398 459.5,205.5 Z"/></g>
<g><path style="opacity:1" fill="#3b3838" d="M 385.5,211.5 C 390.969,210.71 395.469,212.377 399,216.5C 399.876,221.092 398.043,223.759 393.5,224.5C 387.773,224.485 384.106,221.819 382.5,216.5C 383.092,214.577 384.092,212.911 385.5,211.5 Z"/></g>
<g><path style="opacity:1" fill="#82682c" d="M 102.5,217.5 C 102.5,219.833 102.5,222.167 102.5,224.5C 110.833,224.5 119.167,224.5 127.5,224.5C 129.346,258.875 145.346,284.208 175.5,300.5C 170.156,307.206 164.822,313.873 159.5,320.5C 120.395,297.289 101.395,262.956 102.5,217.5 Z"/></g>
<g><path style="opacity:1" fill="#85c506" d="M 211.5,196.5 C 211.5,200.167 211.5,203.833 211.5,207.5C 221.5,208.833 227.167,214.5 228.5,224.5C 232.167,224.5 235.833,224.5 239.5,224.5C 237.972,241.028 228.972,250.361 212.5,252.5C 211.182,259.322 211.182,265.989 212.5,272.5C 206.189,276.466 199.856,280.466 193.5,284.5C 176.202,266.701 158.702,249.035 141,231.5C 140.536,232.094 140.369,232.761 140.5,233.5C 139.167,227.167 139.167,220.833 140.5,214.5C 140.5,215.5 140.5,216.5 140.5,217.5C 140.5,219.833 140.5,222.167 140.5,224.5C 154.833,224.5 169.167,224.5 183.5,224.5C 185.192,207.475 194.525,198.142 211.5,196.5 Z"/></g>
<g><path style="opacity:1" fill="#54c407" d="M 211.5,207.5 C 211.5,213.167 211.5,218.833 211.5,224.5C 206.167,224.5 200.833,224.5 195.5,224.5C 196.029,214.304 201.363,208.637 211.5,207.5 Z"/></g>
<g><path style="opacity:1" fill="#bcdc05" d="M 195.5,224.5 C 195.852,234.852 201.185,240.185 211.5,240.5C 211.5,244.167 211.5,247.833 211.5,251.5C 194.519,250.519 185.519,241.519 184.5,224.5C 188.167,224.5 191.833,224.5 195.5,224.5 Z"/></g>
<g><path style="opacity:1" fill="#85c605" d="M 195.5,224.5 C 200.833,224.5 206.167,224.5 211.5,224.5C 211.5,229.833 211.5,235.167 211.5,240.5C 201.185,240.185 195.852,234.852 195.5,224.5 Z"/></g>
<g><path style="opacity:1" fill="#bddc05" d="M 211.5,224.5 C 216.833,224.5 222.167,224.5 227.5,224.5C 227.167,234.833 221.833,240.167 211.5,240.5C 211.5,235.167 211.5,229.833 211.5,224.5 Z"/></g>
<g><path style="opacity:1" fill="#51c308" d="M 239.5,224.5 C 253.833,224.5 268.167,224.5 282.5,224.5C 282.5,226.833 282.5,229.167 282.5,231.5C 274.167,239.167 266.167,247.167 258.5,255.5C 242.32,258.926 226.987,264.592 212.5,272.5C 211.182,265.989 211.182,259.322 212.5,252.5C 228.972,250.361 237.972,241.028 239.5,224.5 Z"/></g>
<g><path style="opacity:1" fill="#6e5522" d="M 320.5,217.5 C 321.647,221.646 321.814,225.98 321,230.5C 320.238,238.274 319.071,245.941 317.5,253.5C 308.488,253.066 299.488,252.399 290.5,251.5C 293.14,242.661 294.806,233.661 295.5,224.5C 303.833,224.5 312.167,224.5 320.5,224.5C 320.5,222.167 320.5,219.833 320.5,217.5 Z"/></g>
<g><path style="opacity:1" fill="#c6d9d9" d="M 294.5,499.5 C 294.5,486.5 294.5,473.5 294.5,460.5C 282.655,460.828 270.988,460.495 259.5,459.5C 289.835,459.667 320.168,459.5 350.5,459C 370.937,457.961 390.603,453.628 409.5,446C 436.139,431.405 448.473,408.738 446.5,378C 445.53,360.923 441.196,344.757 433.5,329.5C 436.36,313.622 437.194,297.622 436,281.5C 435.602,275.508 434.435,269.675 432.5,264C 436.296,254.741 440.63,245.741 445.5,237C 456.949,234.376 468.449,231.876 480,229.5C 480.772,229.645 481.439,229.978 482,230.5C 504.392,295.348 496.725,356.348 459,413.5C 418.386,468.894 363.553,497.561 294.5,499.5 Z"/></g>
<g><path style="opacity:1" fill="#bad907" d="M 193.5,284.5 C 190.845,286.983 188.012,289.316 185,291.5C 159.771,280.109 144.938,260.775 140.5,233.5C 140.369,232.761 140.536,232.094 141,231.5C 158.702,249.035 176.202,266.701 193.5,284.5 Z"/></g>
<g><path style="opacity:1" fill="#26bd0c" d="M 282.5,231.5 C 282.5,231.833 282.5,232.167 282.5,232.5C 282.404,239.551 280.737,246.217 277.5,252.5C 271.172,253.594 264.839,254.594 258.5,255.5C 266.167,247.167 274.167,239.167 282.5,231.5 Z"/></g>
<g><path style="opacity:1" fill="#383738" d="M 351.5,235.5 C 360.807,234.953 363.474,238.787 359.5,247C 348.923,248.284 346.256,244.45 351.5,235.5 Z"/></g>
<g><path style="opacity:1" fill="#3b3838" d="M 371.5,241.5 C 375.792,241.565 379.625,242.898 383,245.5C 385.574,250.684 384.074,254.017 378.5,255.5C 372.806,255.017 369.139,252.183 367.5,247C 368.007,244.455 369.341,242.621 371.5,241.5 Z"/></g>
<g><path style="opacity:1" fill="#7fc2fe" d="M 39.5,264.5 C 39.8294,327.571 39.4961,390.571 38.5,453.5C 36.9826,453.511 35.8159,454.177 35,455.5C 34.3333,459.5 34.3333,463.5 35,467.5C 37.1354,469.278 39.6354,469.945 42.5,469.5C 40.5953,476.219 39.9287,483.219 40.5,490.5C 31.9723,490.803 26.8056,486.803 25,478.5C 24.3333,410.833 24.3333,343.167 25,275.5C 27.3596,268.57 32.1929,264.904 39.5,264.5 Z"/></g>
<g><path style="opacity:1" fill="#59a8f8" d="M 39.5,264.5 C 39.8333,264.5 40.1667,264.5 40.5,264.5C 39.8427,327.715 40.5094,390.715 42.5,453.5C 41.1667,453.5 39.8333,453.5 38.5,453.5C 39.4961,390.571 39.8294,327.571 39.5,264.5 Z"/></g>
<g><path style="opacity:1" fill="#2a8af3" d="M 40.5,264.5 C 47.6428,264.488 52.4761,267.821 55,274.5C 55.6667,342.833 55.6667,411.167 55,479.5C 52.9089,486.755 48.0756,490.422 40.5,490.5C 39.9287,483.219 40.5953,476.219 42.5,469.5C 46.2403,466.401 47.407,462.401 46,457.5C 45.34,455.676 44.1733,454.343 42.5,453.5C 40.5094,390.715 39.8427,327.715 40.5,264.5 Z"/></g>
<g><path style="opacity:1" fill="#fdfdfd" d="M 429.5,353.5 C 422.152,352.154 414.819,352.321 407.5,354C 395.581,358.128 383.581,361.962 371.5,365.5C 369.805,334.277 354.472,312.777 325.5,301C 294.199,290.159 265.533,294.826 239.5,315C 224.353,328.797 217.02,345.964 217.5,366.5C 205.354,361.878 193.021,357.711 180.5,354C 173.852,352.3 167.185,352.134 160.5,353.5C 159.702,353.043 159.369,352.376 159.5,351.5C 168.102,325.716 183.768,305.216 206.5,290C 247.279,264.911 290.945,258.244 337.5,270C 376.071,280.261 404.904,302.761 424,337.5C 426.702,342.563 428.536,347.897 429.5,353.5 Z"/></g>
<g><path style="opacity:1" fill="#fdfdfd" d="M 259.5,459.5 C 270.988,460.495 282.655,460.828 294.5,460.5C 294.5,473.5 294.5,486.5 294.5,499.5C 218.598,497.018 160.764,463.684 121,399.5C 97.8929,357.523 89.8929,312.857 97,265.5C 107.424,294.089 125.924,315.756 152.5,330.5C 152.833,331.167 153.167,331.833 153.5,332.5C 141.835,357.272 139.335,382.939 146,409.5C 154.667,432.103 170.833,446.27 194.5,452C 215.842,457.242 237.509,459.742 259.5,459.5 Z"/></g>
<g><path style="opacity:1" fill="#bacbcb" d="M 424.5,307.5 C 424.5,304.833 424.5,302.167 424.5,299.5C 421.5,299.5 418.5,299.5 415.5,299.5C 418.065,293.37 420.898,287.37 424,281.5C 425.363,290.315 425.529,298.982 424.5,307.5 Z"/></g>
<g><path style="opacity:1" fill="#36383b" d="M 371.5,365.5 C 370.449,375.386 367.116,384.386 361.5,392.5C 350.244,404.964 336.244,412.464 319.5,415C 297.901,419.018 276.568,418.018 255.5,412C 243.707,408.02 234.041,401.187 226.5,391.5C 221.517,383.913 218.517,375.579 217.5,366.5C 217.02,345.964 224.353,328.797 239.5,315C 265.533,294.826 294.199,290.159 325.5,301C 354.472,312.777 369.805,334.277 371.5,365.5 Z"/></g>
<g><path style="opacity:1" fill="#f8f8f8" d="M 415.5,299.5 C 418.5,299.5 421.5,299.5 424.5,299.5C 424.5,302.167 424.5,304.833 424.5,307.5C 424.663,309.857 424.497,312.19 424,314.5C 420.667,310.5 417.333,306.5 414,302.5C 413.415,301.002 413.915,300.002 415.5,299.5 Z"/></g>
<g><path style="opacity:1" fill="#fcec58" d="M 292.5,307.5 C 294.226,309.82 294.893,312.487 294.5,315.5C 294.141,317.371 293.141,318.871 291.5,320C 277.674,321.331 265.841,326.831 256,336.5C 253.427,340.545 251.427,344.878 250,349.5C 249.005,350.066 248.172,350.733 247.5,351.5C 237.507,351.215 234.173,346.215 237.5,336.5C 249.441,316.525 267.108,306.359 290.5,306C 291.044,306.717 291.711,307.217 292.5,307.5 Z"/></g>
<g><path style="opacity:1" fill="#f7c705" d="M 292.5,307.5 C 315.405,306.704 334.238,315.037 349,332.5C 350.094,334.078 350.928,335.745 351.5,337.5C 336.33,321.586 317.663,313.253 295.5,312.5C 295.737,313.791 295.404,314.791 294.5,315.5C 294.893,312.487 294.226,309.82 292.5,307.5 Z"/></g>
<g><path style="opacity:1" fill="#febb00" d="M 351.5,337.5 C 354.201,340.235 355.868,343.569 356.5,347.5C 351.763,347.881 347.096,348.714 342.5,350C 326.77,357.285 310.27,361.452 293,362.5C 288.111,362.489 283.277,361.989 278.5,361C 268.058,358.13 257.724,354.963 247.5,351.5C 248.172,350.733 249.005,350.066 250,349.5C 251.427,344.878 253.427,340.545 256,336.5C 265.841,326.831 277.674,321.331 291.5,320C 293.141,318.871 294.141,317.371 294.5,315.5C 295.404,314.791 295.737,313.791 295.5,312.5C 317.663,313.253 336.33,321.586 351.5,337.5 Z"/></g>
<g><path style="opacity:1" fill="#fd9001" d="M 237.5,336.5 C 234.173,346.215 237.507,351.215 247.5,351.5C 257.724,354.963 268.058,358.13 278.5,361C 283.277,361.989 288.111,362.489 293,362.5C 310.27,361.452 326.77,357.285 342.5,350C 347.096,348.714 351.763,347.881 356.5,347.5C 363.848,371.645 355.848,388.812 332.5,399C 305.203,408.32 278.203,407.653 251.5,397C 231.718,385.417 225.218,368.584 232,346.5C 233.608,342.944 235.441,339.611 237.5,336.5 Z"/></g>
<g><path style="opacity:1" fill="#f3f2e8" d="M 159.5,351.5 C 159.369,352.376 159.702,353.043 160.5,353.5C 167.185,352.134 173.852,352.3 180.5,354C 193.021,357.711 205.354,361.878 217.5,366.5C 218.517,375.579 221.517,383.913 226.5,391.5C 227.624,396.207 228.957,400.874 230.5,405.5C 230.565,405.938 230.399,406.272 230,406.5C 211.796,399.543 193.296,393.376 174.5,388C 167.566,386.965 160.899,387.799 154.5,390.5C 154.334,382.826 154.5,375.159 155,367.5C 155.694,361.817 157.194,356.484 159.5,351.5 Z"/></g>
<g><path style="opacity:1" fill="#ffec57" d="M 241.5,352.5 C 250.888,351.675 254.388,355.675 252,364.5C 246.894,370.618 241.56,370.951 236,365.5C 235.333,362.833 235.333,360.167 236,357.5C 237.73,355.598 239.563,353.931 241.5,352.5 Z"/></g>
<g><path style="opacity:1" fill="#f3f2e8" d="M 429.5,353.5 C 431.998,358.775 433.331,364.442 433.5,370.5C 433.666,377.508 433.5,384.508 433,391.5C 427.341,387.831 421.174,386.664 414.5,388C 395.186,393.272 376.186,399.438 357.5,406.5C 359.438,402.019 360.771,397.352 361.5,392.5C 367.116,384.386 370.449,375.386 371.5,365.5C 383.581,361.962 395.581,358.128 407.5,354C 414.819,352.321 422.152,352.154 429.5,353.5 Z"/></g>
<g><path style="opacity:1" fill="#ffea55" d="M 241.5,371.5 C 247.359,370.074 249.359,372.074 247.5,377.5C 241.129,379.796 239.129,377.796 241.5,371.5 Z"/></g>
<g><path style="opacity:1" fill="#dfddcd" d="M 433.5,370.5 C 438.729,407.864 423.063,431.364 386.5,441C 371.369,444.437 356.036,446.437 340.5,447C 307.5,447.667 274.5,447.667 241.5,447C 220.162,446.533 199.828,441.867 180.5,433C 164.354,423.564 155.687,409.397 154.5,390.5C 160.899,387.799 167.566,386.965 174.5,388C 193.296,393.376 211.796,399.543 230,406.5C 230.399,406.272 230.565,405.938 230.5,405.5C 239.109,423.218 253.442,433.051 273.5,435C 289.524,435.777 305.524,435.444 321.5,434C 338.192,430.836 350.192,421.67 357.5,406.5C 376.186,399.438 395.186,393.272 414.5,388C 421.174,386.664 427.341,387.831 433,391.5C 433.5,384.508 433.666,377.508 433.5,370.5 Z"/></g>
<g><path style="opacity:1" fill="#d1cfbf" d="M 226.5,391.5 C 234.041,401.187 243.707,408.02 255.5,412C 276.568,418.018 297.901,419.018 319.5,415C 336.244,412.464 350.244,404.964 361.5,392.5C 360.771,397.352 359.438,402.019 357.5,406.5C 350.192,421.67 338.192,430.836 321.5,434C 305.524,435.444 289.524,435.777 273.5,435C 253.442,433.051 239.109,423.218 230.5,405.5C 228.957,400.874 227.624,396.207 226.5,391.5 Z"/></g>
<g><path style="opacity:1" fill="#343940" d="M 38.5,453.5 C 39.8333,453.5 41.1667,453.5 42.5,453.5C 44.1733,454.343 45.34,455.676 46,457.5C 47.407,462.401 46.2403,466.401 42.5,469.5C 39.6354,469.945 37.1354,469.278 35,467.5C 34.3333,463.5 34.3333,459.5 35,455.5C 35.8159,454.177 36.9826,453.511 38.5,453.5 Z"/></g>
</svg>
